<?xml version="1.0" standalone="no"?>
<!DOCTYPE svg PUBLIC "-//W3C//DTD SVG 1.1//EN" "http://www.w3.org/Graphics/SVG/1.1/DTD/svg11.dtd">
<svg version="1.1" xmlns="http://www.w3.org/2000/svg" viewBox="0 0 226.00848388671875 193.6505889892578" width="226.00848388671875" height="193.6505889892578"><!-- svg-source:excalidraw --><metadata></metadata><defs><style class="style-fonts">
      </style></defs><rect x="0" y="0" width="226.00848388671875" height="193.6505889892578" fill="#ffffff"></rect><g transform="translate(64.09088134765625 52.85154724121094) rotate(0 49.26312255859375 -1.2340164184570312)" stroke="none"><path fill="#1e1e1e" d="M 0,-1.89 Q 0,-1.89 1.88,-1.87 3.77,-1.85 5.55,-1.86 7.33,-1.87 9.51,-1.79 11.68,-1.72 13.58,-1.71 15.48,-1.71 17.18,-1.75 18.87,-1.79 21.03,-1.90 23.20,-2.01 25.02,-2.19 26.84,-2.37 28.55,-2.49 30.25,-2.60 32.14,-2.63 34.02,-2.66 35.71,-2.71 37.39,-2.75 39.40,-2.80 41.41,-2.84 43.14,-2.99 44.87,-3.14 46.49,-3.32 48.11,-3.50 50.37,-3.49 52.63,-3.48 54.37,-3.53 56.12,-3.59 57.75,-3.64 59.38,-3.70 61.46,-3.72 63.54,-3.74 65.43,-3.78 67.32,-3.83 69.46,-3.79 71.60,-3.75 73.08,-3.91 74.55,-4.08 75.94,-4.20 77.32,-4.32 78.98,-4.36 80.64,-4.40 82.05,-4.46 83.46,-4.52 84.78,-4.58 86.09,-4.63 87.71,-4.63 89.33,-4.64 90.55,-4.69 91.77,-4.74 92.91,-4.79 94.05,-4.84 96.29,-4.85 98.52,-4.87 98.91,-4.81 99.29,-4.74 99.63,-4.56 99.98,-4.38 100.24,-4.10 100.51,-3.81 100.68,-3.46 100.84,-3.11 100.88,-2.72 100.92,-2.33 100.84,-1.95 100.76,-1.57 100.56,-1.24 100.35,-0.91 100.06,-0.65 99.76,-0.40 99.40,-0.26 99.04,-0.11 98.65,-0.09 98.26,-0.07 97.89,-0.18 97.51,-0.28 97.19,-0.50 96.87,-0.72 96.63,-1.03 96.40,-1.34 96.27,-1.71 96.15,-2.07 96.15,-2.46 96.15,-2.85 96.27,-3.22 96.40,-3.59 96.63,-3.90 96.87,-4.21 97.19,-4.43 97.51,-4.65 97.89,-4.75 98.26,-4.85 98.65,-4.83 99.04,-4.81 99.40,-4.67 99.76,-4.52 100.06,-4.27 100.36,-4.02 100.56,-3.69 100.76,-3.35 100.84,-2.97 100.92,-2.59 100.88,-2.21 100.84,-1.82 100.68,-1.47 100.51,-1.11 100.24,-0.83 99.98,-0.55 99.63,-0.37 99.29,-0.18 98.90,-0.12 98.52,-0.06 98.52,-0.06 98.52,-0.06 96.29,-0.07 94.05,-0.09 92.91,-0.14 91.77,-0.19 90.55,-0.24 89.33,-0.29 87.72,-0.29 86.10,-0.29 84.79,-0.33 83.49,-0.38 82.08,-0.43 80.68,-0.47 79.06,-0.48 77.43,-0.49 76.10,-0.52 74.77,-0.56 73.20,-0.54 71.63,-0.51 69.51,-0.44 67.40,-0.36 65.54,-0.33 63.69,-0.30 61.55,-0.13 59.41,0.02 57.79,-0.00 56.17,-0.03 54.45,-0.03 52.72,-0.04 50.58,0.08 48.44,0.22 46.79,0.32 45.14,0.43 43.36,0.54 41.58,0.64 39.50,0.79 37.42,0.94 35.75,0.92 34.08,0.90 32.24,0.93 30.40,0.96 28.78,0.98 27.15,1.00 25.30,1.15 23.46,1.30 21.17,1.54 18.87,1.79 17.18,1.75 15.48,1.71 13.58,1.71 11.68,1.72 9.51,1.79 7.33,1.87 5.55,1.86 3.77,1.85 1.88,1.87 0,1.89 -0.22,1.87 -0.45,1.84 -0.66,1.76 -0.88,1.68 -1.07,1.55 -1.25,1.42 -1.41,1.25 -1.56,1.07 -1.66,0.87 -1.77,0.67 -1.83,0.45 -1.88,0.22 -1.88,-0.00 -1.88,-0.22 -1.83,-0.45 -1.77,-0.67 -1.66,-0.87 -1.56,-1.07 -1.41,-1.25 -1.25,-1.42 -1.07,-1.55 -0.88,-1.68 -0.66,-1.76 -0.45,-1.84 -0.22,-1.87 0.00,-1.89 0.00,-1.89 L 0,-1.89 Z"></path></g><g transform="translate(162.61712646484375 50.383514404296875) rotate(0 22.53912353515625 -20.191757202148438)" stroke="none"><path fill="#1e1e1e" d="M -2.06,-1.02 Q -2.06,-1.02 -1.10,-2.76 -0.13,-4.50 0.47,-5.86 1.08,-7.22 1.69,-8.55 2.29,-9.87 2.90,-11.39 3.51,-12.91 3.79,-14.06 4.07,-15.20 4.82,-16.90 5.58,-18.61 6.11,-19.91 6.64,-21.22 7.24,-22.41 7.84,-23.61 8.42,-24.72 9.01,-25.83 9.70,-27.35 10.39,-28.87 10.67,-30.05 10.95,-31.22 11.83,-32.28 12.71,-33.34 12.89,-34.57 13.06,-35.80 13.79,-37.32 14.51,-38.85 15.06,-40.00 15.61,-41.14 16.49,-42.13 17.38,-43.12 19.11,-43.22 20.84,-43.32 21.98,-42.54 23.11,-41.76 24.10,-40.72 25.09,-39.68 26.07,-38.52 27.05,-37.35 27.79,-35.47 28.52,-33.59 29.09,-32.68 29.66,-31.78 30.50,-30.44 31.34,-29.11 31.78,-27.74 32.22,-26.38 33.06,-25.09 33.91,-23.80 34.70,-23.06 35.49,-22.32 36.43,-20.97 37.38,-19.63 38.18,-18.79 38.98,-17.96 40.30,-16.65 41.62,-15.35 42.39,-14.28 43.16,-13.21 45.84,-10.17 48.52,-7.12 48.48,-6.56 48.43,-6.00 48.21,-5.49 48.00,-4.97 47.62,-4.55 47.25,-4.14 46.77,-3.86 46.28,-3.58 45.73,-3.47 45.18,-3.36 44.63,-3.44 44.07,-3.51 43.57,-3.76 43.07,-4.00 42.67,-4.40 42.27,-4.79 42.02,-5.29 41.77,-5.79 41.69,-6.34 41.62,-6.90 41.72,-7.45 41.82,-8.00 42.10,-8.49 42.37,-8.97 42.78,-9.35 43.20,-9.73 43.71,-9.95 44.22,-10.17 44.78,-10.22 45.34,-10.27 45.88,-10.14 46.43,-10.00 46.90,-9.70 47.37,-9.40 47.72,-8.97 48.08,-8.54 48.27,-8.01 48.47,-7.49 48.48,-6.93 48.50,-6.37 48.34,-5.83 48.18,-5.30 47.85,-4.84 47.53,-4.39 47.08,-4.06 46.62,-3.73 46.09,-3.56 45.56,-3.40 45.00,-3.41 44.44,-3.42 43.91,-3.61 43.38,-3.80 42.95,-4.15 42.51,-4.50 42.21,-4.97 41.90,-5.44 41.77,-5.98 41.63,-6.52 41.63,-6.52 41.63,-6.52 40.92,-6.62 40.21,-6.72 39.35,-7.41 38.49,-8.10 37.65,-9.30 36.81,-10.50 35.65,-11.60 34.48,-12.70 33.44,-13.79 32.40,-14.87 31.83,-15.78 31.27,-16.70 30.19,-17.87 29.12,-19.04 28.45,-19.97 27.77,-20.91 26.88,-22.21 26.00,-23.52 25.55,-25.06 25.11,-26.60 24.15,-27.87 23.20,-29.14 22.54,-30.88 21.88,-32.61 21.05,-33.84 20.21,-35.06 19.52,-36.05 18.84,-37.04 20.08,-37.76 21.33,-38.48 20.72,-37.28 20.11,-36.08 19.37,-34.63 18.63,-33.19 18.02,-31.94 17.41,-30.69 16.68,-29.63 15.95,-28.56 15.49,-27.52 15.03,-26.48 14.13,-24.97 13.22,-23.46 12.60,-22.41 11.97,-21.36 11.38,-20.39 10.80,-19.42 10.22,-18.14 9.64,-16.86 9.03,-15.40 8.42,-13.94 7.99,-12.64 7.57,-11.35 6.93,-9.64 6.30,-7.93 5.65,-6.66 5.01,-5.40 4.33,-4.00 3.66,-2.61 2.86,-0.79 2.06,1.02 1.91,1.25 1.76,1.49 1.55,1.68 1.35,1.86 1.11,2.00 0.86,2.13 0.59,2.21 0.33,2.28 0.05,2.29 -0.22,2.29 -0.49,2.23 -0.76,2.17 -1.01,2.05 -1.26,1.93 -1.48,1.75 -1.69,1.57 -1.85,1.34 -2.01,1.11 -2.12,0.86 -2.22,0.60 -2.26,0.32 -2.30,0.05 -2.28,-0.22 -2.25,-0.50 -2.16,-0.76 -2.06,-1.02 -2.06,-1.02 L -2.06,-1.02 Z"></path></g><g transform="translate(63.966552734375 52.89772033691406) rotate(0 -19.1903076171875 -15.497161865234375)" stroke="none"><path fill="#1e1e1e" d="M -1.78,1.94 Q -1.78,1.94 -2.83,0.94 -3.89,-0.04 -4.86,-1.05 -5.83,-2.06 -6.52,-2.92 -7.21,-3.78 -8.14,-4.98 -9.07,-6.18 -9.99,-7.54 -10.91,-8.91 -11.65,-10.24 -12.40,-11.57 -13.09,-12.72 -13.78,-13.87 -14.54,-14.89 -15.30,-15.91 -16.16,-17.47 -17.03,-19.03 -17.43,-20.23 -17.84,-21.44 -18.57,-22.64 -19.31,-23.85 -19.98,-24.76 -20.65,-25.68 -21.54,-26.98 -22.44,-28.27 -22.98,-29.20 -23.51,-30.12 -22.50,-30.66 -21.49,-31.19 -22.38,-29.68 -23.27,-28.17 -23.89,-27.25 -24.51,-26.33 -25.38,-25.43 -26.25,-24.52 -26.79,-23.59 -27.33,-22.65 -28.04,-21.48 -28.74,-20.32 -29.18,-19.07 -29.62,-17.83 -30.20,-16.41 -30.78,-14.99 -30.99,-13.68 -31.20,-12.38 -31.57,-10.97 -31.95,-9.57 -32.57,-8.37 -33.19,-7.16 -33.40,-5.95 -33.60,-4.74 -33.85,-3.65 -34.10,-2.56 -34.31,-1.31 -34.53,-0.06 -34.75,1.88 -34.97,3.84 -35.22,4.36 -35.47,4.88 -35.87,5.29 -36.28,5.70 -36.79,5.96 -37.30,6.22 -37.87,6.30 -38.44,6.38 -39.01,6.28 -39.57,6.17 -40.08,5.89 -40.58,5.61 -40.97,5.19 -41.36,4.76 -41.59,4.24 -41.82,3.71 -41.87,3.14 -41.92,2.57 -41.79,2.01 -41.65,1.45 -41.35,0.96 -41.04,0.47 -40.60,0.11 -40.15,-0.25 -39.61,-0.45 -39.07,-0.65 -38.50,-0.67 -37.92,-0.69 -37.37,-0.53 -36.82,-0.36 -36.35,-0.03 -35.88,0.29 -35.54,0.76 -35.20,1.22 -35.03,1.77 -34.86,2.32 -34.87,2.89 -34.88,3.47 -35.07,4.01 -35.27,4.55 -35.62,5.00 -35.98,5.45 -36.46,5.77 -36.94,6.08 -37.50,6.22 -38.06,6.37 -38.63,6.32 -39.21,6.28 -39.74,6.06 -40.27,5.84 -40.70,5.46 -41.13,5.07 -41.42,4.58 -41.70,4.08 -41.82,3.51 -41.93,2.95 -41.86,2.38 -41.78,1.81 -41.78,1.81 -41.78,1.81 -41.70,0.61 -41.61,-0.58 -41.45,-1.74 -41.29,-2.91 -40.99,-4.01 -40.70,-5.12 -40.51,-6.57 -40.32,-8.02 -39.91,-9.16 -39.50,-10.30 -38.85,-11.67 -38.20,-13.03 -38.02,-14.33 -37.84,-15.62 -37.30,-17.27 -36.77,-18.92 -36.35,-19.99 -35.94,-21.05 -35.50,-22.27 -35.07,-23.49 -34.32,-24.80 -33.57,-26.11 -32.50,-27.84 -31.42,-29.57 -30.44,-30.68 -29.46,-31.78 -28.76,-32.98 -28.05,-34.17 -27.20,-35.10 -26.35,-36.02 -25.02,-36.58 -23.68,-37.13 -21.82,-36.92 -19.96,-36.71 -19.09,-35.74 -18.22,-34.76 -17.64,-33.85 -17.07,-32.94 -16.20,-31.55 -15.33,-30.15 -14.77,-29.25 -14.21,-28.34 -13.47,-27.37 -12.72,-26.41 -12.06,-24.65 -11.40,-22.89 -11.06,-21.80 -10.72,-20.70 -10.09,-19.61 -9.47,-18.53 -8.63,-17.23 -7.80,-15.93 -7.11,-14.50 -6.42,-13.07 -5.80,-11.80 -5.18,-10.54 -4.47,-9.48 -3.76,-8.42 -2.90,-7.03 -2.03,-5.65 -1.20,-4.76 -0.38,-3.87 0.69,-2.91 1.78,-1.94 1.98,-1.70 2.19,-1.46 2.33,-1.17 2.48,-0.89 2.55,-0.58 2.62,-0.27 2.61,0.04 2.61,0.36 2.52,0.66 2.44,0.97 2.29,1.25 2.14,1.53 1.92,1.76 1.71,2.00 1.44,2.17 1.18,2.35 0.88,2.46 0.58,2.57 0.27,2.60 -0.04,2.63 -0.36,2.59 -0.67,2.54 -0.97,2.43 -1.26,2.31 -1.52,2.12 -1.78,1.94 -1.78,1.94 L -1.78,1.94 Z"></path></g><g transform="translate(54.6270751953125 90.71376037597656) rotate(0 0.00004999999998744897 0.00004999999998744897)" stroke="none"><path fill="#1e1e1e" d="M 1.57,-1.57 Q 1.57,-1.57 1.77,-1.27 1.98,-0.98 2.09,-0.64 2.20,-0.29 2.19,0.05 2.18,0.41 2.05,0.75 1.93,1.09 1.70,1.37 1.48,1.65 1.18,1.84 0.87,2.04 0.52,2.12 0.18,2.21 -0.17,2.18 -0.53,2.15 -0.86,2.01 -1.19,1.87 -1.46,1.63 -1.73,1.39 -1.90,1.07 -2.08,0.76 -2.15,0.41 -2.21,0.05 -2.17,-0.29 -2.12,-0.65 -1.96,-0.97 -1.80,-1.29 -1.54,-1.54 -1.29,-1.80 -0.97,-1.96 -0.65,-2.12 -0.29,-2.17 0.06,-2.21 0.41,-2.15 0.76,-2.08 1.07,-1.90 1.39,-1.73 1.63,-1.46 1.87,-1.19 2.01,-0.86 2.15,-0.53 2.18,-0.17 2.21,0.18 2.12,0.52 2.03,0.87 1.84,1.18 1.65,1.48 1.37,1.70 1.09,1.93 0.75,2.05 0.41,2.18 0.05,2.19 -0.30,2.20 -0.64,2.09 -0.98,1.98 -1.27,1.77 -1.57,1.56 -1.57,1.57 -1.57,1.57 -1.73,1.35 -1.90,1.14 -2.01,0.90 -2.12,0.66 -2.16,0.39 -2.21,0.13 -2.20,-0.13 -2.18,-0.40 -2.10,-0.65 -2.02,-0.91 -1.88,-1.14 -1.74,-1.36 -1.55,-1.55 -1.36,-1.74 -1.14,-1.88 -0.91,-2.02 -0.65,-2.10 -0.40,-2.18 -0.13,-2.20 0.13,-2.21 0.39,-2.16 0.66,-2.12 0.90,-2.01 1.14,-1.90 1.35,-1.73 1.57,-1.57 1.57,-1.57 L 1.57,-1.57 Z"></path></g><g transform="translate(54.6270751953125 90.71376037597656) rotate(0 1.475555419921875 4.694610595703125)" stroke="none"><path fill="#1e1e1e" d="M 2.50,0.48 Q 2.50,0.48 2.39,1.28 2.28,2.08 2.32,3.38 2.35,4.68 2.44,5.97 2.54,7.25 1.12,7.30 -0.29,7.34 0.10,5.75 0.51,4.17 -0.34,3.69 -1.20,3.21 -1.68,2.93 -2.16,2.66 -2.53,2.24 -2.90,1.82 -3.11,1.31 -3.33,0.80 -3.37,0.25 -3.41,-0.30 -3.27,-0.83 -3.14,-1.37 -2.84,-1.84 -2.53,-2.30 -2.10,-2.65 -1.66,-2.99 -1.14,-3.18 -0.62,-3.37 -0.07,-3.38 0.48,-3.39 1.01,-3.22 1.54,-3.06 1.99,-2.73 2.44,-2.41 2.76,-1.95 3.08,-1.50 3.24,-0.97 3.40,-0.44 3.38,0.11 3.36,0.66 3.17,1.18 2.97,1.70 2.62,2.13 2.27,2.56 1.80,2.86 1.33,3.15 0.79,3.29 0.25,3.42 -0.29,3.37 -0.84,3.32 -1.35,3.10 -1.86,2.87 -2.27,2.50 -2.68,2.13 -2.95,1.64 -3.22,1.16 -3.32,0.61 -3.42,0.07 -3.35,-0.47 -3.27,-1.02 -3.02,-1.52 -2.77,-2.01 -2.37,-2.40 -1.98,-2.79 -1.48,-3.04 -0.98,-3.28 -0.43,-3.35 0.11,-3.42 0.65,-3.32 1.20,-3.21 1.20,-3.21 1.20,-3.21 3.96,-0.81 6.72,1.58 6.84,3.06 6.97,4.54 6.75,5.68 6.53,6.82 6.32,8.06 6.11,9.30 5.27,10.55 4.42,11.80 3.39,12.21 2.35,12.63 1.02,12.57 -0.30,12.52 -1.32,11.99 -2.34,11.45 -2.99,10.06 -3.64,8.66 -3.59,7.45 -3.54,6.23 -3.45,5.08 -3.35,3.92 -3.12,2.50 -2.90,1.07 -2.70,0.29 -2.50,-0.48 -2.41,-0.78 -2.31,-1.07 -2.15,-1.33 -1.99,-1.59 -1.77,-1.81 -1.55,-2.02 -1.28,-2.18 -1.02,-2.33 -0.72,-2.42 -0.43,-2.51 -0.12,-2.53 0.18,-2.54 0.48,-2.48 0.78,-2.42 1.06,-2.29 1.34,-2.16 1.58,-1.97 1.82,-1.78 2.01,-1.54 2.19,-1.29 2.32,-1.01 2.44,-0.73 2.49,-0.42 2.54,-0.12 2.52,0.18 2.50,0.48 2.50,0.48 L 2.50,0.48 Z"></path></g><g transform="translate(159.78692626953125 81.00495910644531) rotate(0 0.44384765625 6.5163421630859375)" stroke="none"><path fill="#1e1e1e" d="M 2.24,1.33 Q 2.24,1.33 1.69,2.29 1.15,3.26 0.89,4.43 0.63,5.61 0.56,6.93 0.48,8.25 0.55,9.48 0.62,10.71 1.57,10.15 2.52,9.59 1.36,10.53 0.19,11.47 0.04,10.33 -0.10,9.19 -0.84,7.92 -1.58,6.65 -2.21,5.48 -2.84,4.32 -3.07,2.49 -3.30,0.67 -3.33,0.12 -3.35,-0.41 -3.19,-0.94 -3.04,-1.46 -2.73,-1.91 -2.41,-2.35 -1.97,-2.68 -1.53,-3.00 -1.01,-3.17 -0.49,-3.34 0.05,-3.33 0.59,-3.32 1.11,-3.14 1.62,-2.95 2.05,-2.62 2.48,-2.28 2.78,-1.82 3.08,-1.37 3.22,-0.84 3.36,-0.31 3.32,0.23 3.28,0.77 3.07,1.28 2.86,1.78 2.50,2.19 2.14,2.60 1.67,2.88 1.20,3.15 0.66,3.26 0.13,3.37 -0.41,3.30 -0.95,3.24 -1.44,3.00 -1.93,2.76 -2.32,2.38 -2.71,2.00 -2.96,1.51 -3.21,1.02 -3.29,0.48 -3.37,-0.05 -3.28,-0.58 -3.18,-1.12 -2.92,-1.60 -2.65,-2.08 -2.25,-2.45 -1.85,-2.82 -1.35,-3.04 -0.85,-3.26 -0.30,-3.31 0.23,-3.36 0.76,-3.24 1.29,-3.11 1.76,-2.82 2.22,-2.54 2.57,-2.11 2.92,-1.69 3.11,-1.18 3.30,-0.67 3.30,-0.67 3.30,-0.67 3.46,0.48 3.62,1.63 4.34,2.86 5.07,4.09 5.75,5.29 6.44,6.48 6.71,8.35 6.98,10.21 6.94,11.34 6.90,12.47 6.03,13.87 5.16,15.27 3.80,15.86 2.44,16.46 1.16,16.31 -0.11,16.17 -1.38,15.66 -2.66,15.15 -3.81,14.24 -4.95,13.32 -5.35,12.04 -5.76,10.75 -5.69,9.66 -5.62,8.57 -5.37,7.25 -5.13,5.93 -4.69,4.40 -4.25,2.87 -3.84,1.72 -3.43,0.58 -2.84,-0.37 -2.24,-1.33 -2.05,-1.58 -1.85,-1.83 -1.61,-2.02 -1.36,-2.22 -1.08,-2.35 -0.79,-2.48 -0.48,-2.54 -0.17,-2.60 0.13,-2.58 0.45,-2.57 0.75,-2.47 1.05,-2.38 1.32,-2.22 1.59,-2.06 1.81,-1.84 2.04,-1.62 2.20,-1.35 2.37,-1.08 2.46,-0.78 2.56,-0.48 2.58,-0.17 2.60,0.13 2.55,0.44 2.49,0.75 2.37,1.04 2.24,1.33 2.24,1.33 L 2.24,1.33 Z"></path></g><g transform="translate(103.796142578125 131.05824279785156) rotate(0 9.776275634765625 -6.6974334716796875)" stroke="none"><path fill="#1e1e1e" d="M -2.14,-1.46 Q -2.14,-1.46 -1.10,-2.86 -0.06,-4.26 0.69,-5.41 1.45,-6.55 2.15,-7.70 2.85,-8.84 3.47,-9.75 4.09,-10.65 4.55,-11.67 5.00,-12.69 5.56,-14.36 6.12,-16.03 7.09,-16.99 8.07,-17.95 9.92,-18.05 11.76,-18.15 12.80,-17.49 13.84,-16.82 14.93,-15.46 16.03,-14.09 16.58,-13.15 17.13,-12.21 17.77,-11.19 18.41,-10.16 19.00,-8.76 19.59,-7.37 20.23,-5.77 20.86,-4.16 21.86,-1.45 22.85,1.24 22.87,1.79 22.88,2.33 22.72,2.85 22.57,3.37 22.25,3.82 21.93,4.26 21.49,4.58 21.05,4.90 20.53,5.06 20.01,5.22 19.47,5.21 18.92,5.19 18.41,5.01 17.90,4.82 17.48,4.48 17.05,4.14 16.76,3.68 16.46,3.23 16.33,2.70 16.20,2.17 16.24,1.63 16.28,1.09 16.49,0.58 16.71,0.08 17.07,-0.31 17.43,-0.72 17.91,-0.99 18.38,-1.26 18.91,-1.36 19.45,-1.46 19.99,-1.39 20.53,-1.32 21.01,-1.08 21.50,-0.84 21.89,-0.46 22.27,-0.07 22.52,0.40 22.76,0.89 22.84,1.43 22.91,1.97 22.81,2.50 22.71,3.04 22.44,3.51 22.18,3.99 21.77,4.35 21.37,4.72 20.87,4.93 20.37,5.15 19.83,5.20 19.28,5.24 18.76,5.11 18.23,4.98 17.77,4.69 17.31,4.40 16.97,3.97 16.62,3.55 16.43,3.04 16.25,2.53 16.25,2.53 16.25,2.53 15.39,0.26 14.54,-2.00 14.07,-3.21 13.61,-4.42 12.92,-6.04 12.24,-7.66 11.51,-8.92 10.78,-10.17 11.02,-11.48 11.26,-12.78 10.85,-11.67 10.45,-10.57 9.58,-9.00 8.70,-7.43 7.96,-6.62 7.22,-5.80 6.39,-4.79 5.56,-3.78 4.77,-2.64 3.99,-1.49 3.06,-0.01 2.14,1.46 1.93,1.69 1.73,1.93 1.47,2.10 1.21,2.28 0.92,2.40 0.63,2.51 0.32,2.55 0.01,2.59 -0.29,2.55 -0.60,2.52 -0.89,2.41 -1.19,2.30 -1.45,2.12 -1.70,1.95 -1.91,1.71 -2.12,1.48 -2.27,1.20 -2.41,0.93 -2.49,0.63 -2.57,0.32 -2.57,0.01 -2.57,-0.29 -2.50,-0.60 -2.42,-0.90 -2.28,-1.18 -2.14,-1.46 -2.14,-1.46 L -2.14,-1.46 Z"></path></g><g transform="translate(12.2442626953125 79.86860656738281) rotate(0 11.271331787109375 37.7734375)" stroke="none"><path fill="#1e1e1e" d="M 2.49,0.51 Q 2.49,0.51 2.19,1.91 1.89,3.32 1.60,4.52 1.31,5.72 1.23,6.80 1.15,7.88 1.02,9.00 0.90,10.12 0.75,11.44 0.60,12.75 0.57,14.75 0.53,16.75 0.53,17.95 0.52,19.15 0.55,21.17 0.58,23.19 0.66,24.39 0.73,25.60 0.92,26.72 1.10,27.85 1.33,29.36 1.55,30.87 1.83,31.95 2.11,33.04 2.36,34.12 2.60,35.20 2.99,36.37 3.37,37.54 3.80,38.80 4.24,40.05 4.69,41.29 5.14,42.53 5.64,44.17 6.14,45.82 6.56,47.03 6.99,48.24 7.60,49.49 8.21,50.74 8.80,51.99 9.39,53.23 9.97,54.31 10.55,55.39 11.29,56.74 12.02,58.08 12.70,59.15 13.38,60.23 14.10,61.27 14.82,62.32 15.86,63.59 16.90,64.86 17.84,65.84 18.78,66.83 19.79,67.87 20.80,68.90 21.61,69.67 22.43,70.45 23.78,71.70 25.13,72.95 25.53,73.08 25.93,73.20 26.28,73.44 26.62,73.69 26.87,74.03 27.12,74.37 27.24,74.78 27.37,75.18 27.36,75.60 27.35,76.03 27.20,76.42 27.06,76.82 26.79,77.15 26.53,77.48 26.18,77.71 25.82,77.94 25.41,78.04 25.00,78.14 24.58,78.11 24.16,78.08 23.77,77.91 23.38,77.75 23.07,77.46 22.75,77.18 22.54,76.82 22.33,76.45 22.25,76.04 22.17,75.62 22.23,75.20 22.28,74.78 22.47,74.40 22.66,74.03 22.95,73.73 23.25,73.43 23.63,73.24 24.01,73.05 24.43,72.99 24.84,72.93 25.26,73.01 25.67,73.09 26.04,73.30 26.41,73.50 26.69,73.82 26.98,74.13 27.15,74.52 27.31,74.90 27.35,75.32 27.38,75.75 27.28,76.16 27.18,76.57 26.96,76.92 26.73,77.28 26.40,77.54 26.07,77.81 25.68,77.96 25.28,78.10 24.86,78.12 24.44,78.13 24.44,78.13 24.44,78.13 21.65,76.04 18.87,73.95 18.10,73.11 17.34,72.28 16.29,71.21 15.25,70.14 14.28,69.09 13.32,68.04 11.96,66.60 10.60,65.16 9.84,64.02 9.09,62.88 8.39,61.72 7.69,60.56 6.85,59.17 6.02,57.77 5.41,56.57 4.80,55.37 4.26,54.19 3.71,53.00 2.91,51.45 2.11,49.90 1.71,48.69 1.31,47.48 0.71,45.93 0.11,44.38 -0.35,43.12 -0.82,41.86 -1.30,40.57 -1.77,39.27 -2.46,36.81 -3.14,34.35 -3.45,33.08 -3.75,31.81 -4.06,30.30 -4.38,28.78 -4.62,27.38 -4.86,25.98 -4.96,24.58 -5.07,23.18 -5.02,21.13 -4.97,19.09 -4.90,16.80 -4.83,14.51 -4.74,13.34 -4.65,12.17 -4.33,9.77 -4.02,7.36 -3.85,5.89 -3.67,4.41 -3.36,3.35 -3.06,2.29 -2.77,0.88 -2.49,-0.51 -2.39,-0.80 -2.29,-1.09 -2.13,-1.35 -1.96,-1.61 -1.74,-1.82 -1.52,-2.03 -1.25,-2.19 -0.99,-2.34 -0.69,-2.42 -0.40,-2.51 -0.09,-2.52 0.21,-2.53 0.51,-2.47 0.81,-2.41 1.08,-2.27 1.36,-2.14 1.60,-1.95 1.84,-1.75 2.02,-1.51 2.20,-1.26 2.32,-0.98 2.44,-0.70 2.49,-0.39 2.54,-0.09 2.51,0.21 2.49,0.51 2.49,0.51 L 2.49,0.51 Z"></path></g><g transform="translate(203.416259765625 67.25141906738281) rotate(0 -3.29022216796875 58.1995849609375)" stroke="none"><path fill="#1e1e1e" d="M 1.65,-1.13 Q 1.65,-1.13 2.80,0.71 3.95,2.56 4.99,4.37 6.03,6.18 6.94,8.67 7.84,11.16 8.49,13.07 9.14,14.98 9.80,16.53 10.46,18.07 11.06,19.55 11.65,21.03 12.14,22.29 12.63,23.55 12.89,25.04 13.16,26.54 13.44,28.39 13.73,30.25 13.97,31.98 14.22,33.71 14.31,35.58 14.41,37.44 14.50,38.93 14.58,40.43 14.64,41.87 14.70,43.31 14.56,45.30 14.42,47.29 14.20,49.08 13.98,50.87 13.70,52.60 13.43,54.34 12.96,56.40 12.50,58.47 12.06,60.28 11.62,62.09 11.21,64.10 10.80,66.10 10.58,67.85 10.36,69.59 9.91,71.36 9.46,73.12 8.66,75.27 7.85,77.41 7.18,79.22 6.51,81.02 5.90,82.69 5.28,84.36 4.32,86.40 3.36,88.44 2.42,90.24 1.48,92.04 0.79,93.64 0.09,95.25 -0.86,96.98 -1.83,98.71 -2.44,99.86 -3.04,101.01 -3.59,102.16 -4.14,103.31 -4.73,104.41 -5.33,105.51 -6.04,106.59 -6.76,107.66 -7.94,108.96 -9.12,110.25 -10.02,111.25 -10.92,112.25 -11.64,113.06 -12.35,113.87 -13.14,114.64 -13.93,115.41 -15.77,116.99 -17.61,118.56 -17.99,118.76 -18.38,118.95 -18.81,119.01 -19.24,119.07 -19.66,118.98 -20.09,118.90 -20.46,118.69 -20.84,118.48 -21.13,118.16 -21.42,117.84 -21.59,117.44 -21.76,117.04 -21.80,116.61 -21.83,116.18 -21.73,115.76 -21.62,115.34 -21.39,114.98 -21.16,114.61 -20.82,114.34 -20.48,114.07 -20.08,113.92 -19.67,113.77 -19.24,113.76 -18.81,113.75 -18.40,113.87 -17.98,114.00 -17.63,114.25 -17.28,114.50 -17.03,114.85 -16.77,115.21 -16.65,115.62 -16.52,116.03 -16.53,116.46 -16.54,116.90 -16.69,117.30 -16.84,117.71 -17.11,118.04 -17.38,118.38 -17.75,118.62 -18.11,118.85 -18.53,118.95 -18.95,119.06 -19.38,119.02 -19.81,118.99 -20.21,118.82 -20.61,118.65 -20.93,118.36 -21.25,118.07 -21.46,117.69 -21.68,117.32 -21.76,116.89 -21.84,116.47 -21.78,116.04 -21.72,115.61 -21.53,115.22 -21.34,114.84 -21.03,114.53 -20.73,114.22 -20.73,114.23 -20.73,114.23 -18.99,112.95 -17.26,111.68 -15.76,110.38 -14.26,109.08 -13.34,108.16 -12.42,107.25 -11.40,106.12 -10.39,105.00 -9.68,104.14 -8.98,103.28 -8.32,102.33 -7.66,101.38 -6.94,100.21 -6.21,99.03 -5.49,98.05 -4.77,97.07 -3.86,95.46 -2.96,93.85 -2.17,92.20 -1.38,90.54 -0.49,88.84 0.38,87.13 1.20,85.12 2.02,83.10 2.68,81.47 3.34,79.85 4.00,78.08 4.66,76.32 5.31,74.23 5.95,72.14 6.42,70.63 6.88,69.11 7.15,67.32 7.42,65.52 7.72,63.37 8.03,61.22 8.44,59.51 8.86,57.80 9.15,55.76 9.45,53.71 9.71,52.04 9.97,50.37 10.18,48.74 10.38,47.12 10.40,45.24 10.42,43.36 10.44,41.95 10.47,40.55 10.47,39.10 10.47,37.66 10.37,35.96 10.27,34.26 10.05,32.60 9.83,30.95 9.43,29.01 9.03,27.07 8.96,25.91 8.88,24.75 8.56,23.51 8.24,22.27 7.77,20.79 7.30,19.32 6.70,17.67 6.10,16.02 5.46,14.17 4.82,12.32 3.94,10.14 3.07,7.96 2.00,6.29 0.94,4.62 -0.35,2.87 -1.65,1.13 -1.77,0.91 -1.88,0.70 -1.93,0.46 -1.99,0.22 -1.99,-0.01 -1.99,-0.25 -1.93,-0.48 -1.87,-0.72 -1.75,-0.93 -1.64,-1.15 -1.48,-1.33 -1.32,-1.51 -1.12,-1.64 -0.92,-1.78 -0.69,-1.86 -0.46,-1.95 -0.22,-1.97 0.01,-2.00 0.25,-1.97 0.49,-1.94 0.71,-1.85 0.94,-1.77 1.14,-1.63 1.34,-1.49 1.49,-1.31 1.65,-1.13 1.65,-1.13 L 1.65,-1.13 Z"></path></g></svg>